<?xml version="1.0" encoding="UTF-8"?>
<svg id="a" data-name="레이어 1" xmlns="http://www.w3.org/2000/svg" viewBox="0 0 161.04 21.5">
  <defs>
    <style>
      .b {
        fill: #fff;
      }

      .c {
        fill: #e94932;
      }
    </style>
  </defs>
  <path class="b" d="m12.66,21.24l-7.18-9.31v9.31H0V3.02h5.04l7.2,9.36V3.02h5.46v18.23h-5.04Z"/>
  <path class="c" d="m35.46,14.12c0,4.45-3.15,7.33-8.03,7.33s-8.03-2.89-8.03-7.33,3.15-7.31,8.03-7.31,8.03,2.86,8.03,7.31Zm-10.17.08c0,1.66.83,2.76,2.13,2.76s2.13-1.09,2.13-2.76-.83-2.76-2.13-2.76-2.13,1.09-2.13,2.76Z"/>
  <path class="b" d="m47.42,20.62c-.94.55-2.55.88-4.06.88-3.25.03-5.36-1.87-5.36-4.84v-5.17h-1.95v-3.69h1.95v-3.98h5.82v3.98h3.33v3.69h-3.33v4.29c0,.75.44,1.22,1.14,1.2.34,0,.91-.16,1.46-.36l.99,4Z"/>
  <path class="b" d="m55.15,2.96c0,1.74-1.22,2.96-2.96,2.96s-2.96-1.22-2.96-2.96,1.22-2.96,2.96-2.96,2.96,1.22,2.96,2.96Zm-5.9,18.28V7.02h5.85v14.22h-5.85Z"/>
  <path class="b" d="m58.99,6.53c0-2.96,2.31-4.86,5.9-4.84,1.01,0,2.16.16,2.89.42l-.18,4.6c-.44-.31-1.01-.49-1.43-.49-.83-.03-1.35.44-1.35,1.2v.13h2.76v3.69h-2.76v10.01h-5.82v-10.01h-1.95v-3.69h1.95v-1.01Zm10.01-3.56c0-1.74,1.22-2.96,2.96-2.96s2.96,1.22,2.96,2.96-1.22,2.96-2.96,2.96-2.96-1.22-2.96-2.96Zm5.88,4.06v14.22h-5.85V7.02h5.85Z"/>
  <path class="b" d="m90.95,10.92l-4.65,1.98c-.36-.86-.99-1.35-1.82-1.35-1.14,0-1.87,1.04-1.87,2.63s.73,2.65,1.87,2.65c.83,0,1.43-.47,1.74-1.53l4.73,2.18c-1.04,2.52-3.54,3.98-6.79,3.98-4.52,0-7.46-2.86-7.46-7.25s2.96-7.38,7.51-7.38c3.09,0,5.56,1.51,6.73,4.11Z"/>
  <path class="b" d="m105.79,12.04v9.21h-5.75v-1.54c-.83,1.14-2.18,1.79-4,1.79-3.02,0-4.76-1.77-4.76-4.47s1.9-4.29,5.51-4.34h3.25c-.03-.99-.78-1.56-2.21-1.56-1.07,0-2.7.31-4.32.91l-1.3-3.9c2.42-.88,4.91-1.38,7.02-1.38,4.11,0,6.55,1.92,6.55,5.28Zm-5.75,4.65v-1.3h-2.03c-.81,0-1.25.39-1.25,1.14s.47,1.25,1.3,1.25c.75,0,1.51-.39,1.98-1.09Z"/>
  <path class="b" d="m118.4,20.62c-.94.55-2.55.88-4.06.88-3.25.03-5.36-1.87-5.36-4.84v-5.17h-1.95v-3.69h1.95v-3.98h5.82v3.98h3.33v3.69h-3.33v4.29c0,.75.44,1.22,1.14,1.2.34,0,.91-.16,1.46-.36l.99,4Z"/>
  <path class="b" d="m126.12,2.96c0,1.74-1.22,2.96-2.96,2.96s-2.96-1.22-2.96-2.96,1.22-2.96,2.96-2.96,2.96,1.22,2.96,2.96Zm-5.9,18.28V7.02h5.85v14.22h-5.85Z"/>
  <path class="b" d="m143.96,14.12c0,4.45-3.15,7.33-8.03,7.33s-8.03-2.89-8.03-7.33,3.15-7.31,8.03-7.31,8.03,2.86,8.03,7.31Zm-10.17.08c0,1.66.83,2.76,2.13,2.76s2.13-1.09,2.13-2.76-.83-2.76-2.13-2.76-2.13,1.09-2.13,2.76Z"/>
  <path class="b" d="m161.04,12.17v9.07h-5.85v-7.38c0-1.2-.68-1.95-1.69-1.95-1.14,0-1.87.91-1.87,2.29v7.05h-5.85V7.02h5.85v2.03c.96-1.46,2.44-2.29,4.32-2.29,2.99,0,5.1,2.13,5.1,5.41Z"/>
</svg>